<svg xmlns="http://www.w3.org/2000/svg" viewBox="0 0 512 512" xml:space="preserve"><style>.st1{fill:#2e86b7}.st2{opacity:.15;fill:#444}.st3{opacity:.5;fill:#fff}.st4{fill:#36434f}</style><circle cx="256" cy="306.5" r="151" fill="#f4f4f4"/><path class="st1" d="M256 159c81.5 0 147.5 66 147.5 147.5S337.5 454 256 454s-147.5-66-147.5-147.5S174.5 159 256 159m0-30c-23.9 0-47.2 4.7-69.1 14-21.1 8.9-40.1 21.7-56.4 38-16.3 16.3-29.1 35.3-38 56.4-9.3 21.9-14 45.2-14 69.1s4.7 47.2 14 69.1c8.9 21.1 21.7 40.1 38 56.4 16.3 16.3 35.3 29.1 56.4 38 21.9 9.3 45.2 14 69.1 14s47.2-4.7 69.1-14c21.1-8.9 40.1-21.7 56.4-38 16.3-16.3 29.1-35.3 38-56.4 9.3-21.9 14-45.2 14-69.1s-4.7-47.2-14-69.1c-8.9-21.1-21.7-40.1-38-56.4-16.3-16.3-35.3-29.1-56.4-38-21.9-9.3-45.2-14-69.1-14zm-97.1-22.4-20.8 12-25.5-44.2c-1.1-1.9-.4-4.4 1.5-5.5l13.9-8c1.9-1.1 4.4-.4 5.5 1.5l25.4 44.2z"/><path class="st1" d="m149.728 125.737 9.526-5.5 26 45.032-9.526 5.5z"/><path class="st1" d="M134.5 88.4c-28.3 16.3-41.7 38.3-44.7 60.8-.5 3.5.2 7.1 2 10.1l6.9 12c2.2 3.8 7.1 5.1 10.9 2.9l111.7-64.5c3.8-2.2 5.1-7.1 2.9-10.9l-6.9-12c-1.8-3.1-4.5-5.5-7.8-6.8-21-8.6-46.7-8-75 8.4z"/><path class="st2" d="M90 154.5c.3 1.7 1 3.3 1.8 4.8l6.9 12c2.2 3.8 7.1 5.1 10.9 2.9l111.7-64.5c3.8-2.2 5.1-7.1 2.9-10.9l-6.9-12c-.9-1.5-2-2.9-3.3-4L90 154.5z"/><path class="st3" d="M117.3 108.3c-6.5 5.2-11.8 11.5-15.5 18.6-1.1 2 .4 4.4 2.7 4.4h16.4c1.4 0 2.5-.9 2.9-2.2 1.8-6.9 4.8-13.5 9-19.4 1.4-2 0-4.7-2.5-4.7h-3.2c-3.5-.1-7 1.1-9.8 3.3z"/><path class="st1" d="m353.1 106.6 20.8 12 25.5-44.2c1.1-1.9.4-4.4-1.5-5.5l-13.9-8c-1.9-1.1-4.4-.4-5.5 1.5l-25.4 44.2zm-16.855 64.186-9.526-5.5 26-45.032 9.526 5.5z"/><path class="st1" d="M377.5 88.4c28.3 16.3 41.7 38.3 44.7 60.8.5 3.5-.2 7.1-2 10.1l-6.9 12c-2.2 3.8-7.1 5.1-10.9 2.9l-111.7-64.5c-3.8-2.2-5.1-7.1-2.9-10.9l6.9-12c1.8-3.1 4.5-5.5 7.8-6.8 21-8.6 46.7-8 75 8.4z"/><path class="st2" d="M422 154.5c-.3 1.7-1 3.3-1.8 4.8l-6.9 12c-2.2 3.8-7.1 5.1-10.9 2.9l-111.7-64.5c-3.8-2.2-5.1-7.1-2.9-10.9l6.9-12c.9-1.5 2-2.9 3.3-4l124 71.7z"/><path class="st3" d="M394.7 108.3c6.5 5.2 11.8 11.5 15.5 18.6 1.1 2-.4 4.4-2.7 4.4h-16.4c-1.4 0-2.5-.9-2.9-2.2-1.8-6.9-4.8-13.5-9-19.4-1.4-2 0-4.7 2.5-4.7h3.2c3.5-.1 7 1.1 9.8 3.3z"/><circle class="st4" cx="256" cy="306.5" r="11.3"/><path class="st4" d="M253.2 173.5h5.5v11h-5.5v-11zm0 255h5.5v11h-5.5v-11zM123 309.2v-5.5h11v5.5h-11zm255 .1v-5.5h11v5.5h-11zm-238.6-66.9 2.8-4.7 9.5 5.5-2.8 4.7-9.5-5.5zm220.9 127.5 2.8-4.7 9.5 5.5-2.8 4.7-9.5-5.5zM191.9 423l-4.7-2.8 5.5-9.5 4.7 2.8-5.5 9.5zm127.4-220.9-4.7-2.8 5.5-9.5 4.7 2.8-5.5 9.5zm-132.2-9.4 4.7-2.8 5.5 9.6-4.7 2.8-5.5-9.6zm127.5 220.9 4.7-2.8 5.5 9.5-4.7 2.8-5.5-9.5zm-172.4-38.3-2.8-4.7 9.5-5.5 2.8 4.7-9.5 5.5zM363 247.9l-2.8-4.7 9.5-5.5 2.8 4.7-9.5 5.5zm-53.6-63.2 1.5.7-2.2 5-1.5-.7c-.1 0 2.2-5 2.2-5zm-106 237.8 1.5.7-2.3 5.1-1.5-.7 2.3-5.1zm92.9-242.7 1.5.5-1.7 5.2-1.5-.5 1.7-5.2zm-80.5 247.6 1.5.5-1.7 5.3-1.5-.5 1.7-5.3zm67-251.1 1.6.3-1.1 5.4-1.6-.3c0-.1 1.1-5.4 1.1-5.4zm-54 254.7 1.6.3-1.1 5.5-1.6-.3 1.1-5.5zm40.3-256.8 1.6.2-.6 5.4-1.6-.2.6-5.4zm-27.2 258.9 1.6.2-.6 5.5-1.6-.2.6-5.5zm121.2-205.4.9 1.3-4.4 3.2-.9-1.3 4.4-3.2zM152.4 380.8l.9 1.3-4.5 3.3-.9-1.3 4.5-3.3zM354.3 217l1.1 1.2-4.1 3.6-1.1-1.2 4.1-3.6zM160.8 391.2l1.1 1.2-4.2 3.7-1.1-1.2 4.2-3.7zm183.5-184.1 1.2 1.1-3.6 4.1-1.2-1.1 3.6-4.1zM170.2 400.7l1.2 1.1-3.7 4.2-1.2-1.1 3.7-4.2zm163.3-202.2 1.3.9-3.2 4.4-1.3-.9 3.2-4.4zM180.4 409.1l1.3.9-3.3 4.5-1.3-.9 3.3-4.5zm207.8-117.3.2 1.6-5.4.6-.2-1.6 5.4-.6zm-259 27.2.2 1.6-5.5.6-.2-1.6 5.5-.6zm256.7-41 .3 1.6-5.4 1.1-.3-1.6 5.4-1.1zm-254.7 54.2.3 1.6-5.5 1.1-.3-1.6c0 .1 5.5-1.1 5.5-1.1zm250.9-67.6.5 1.5-5.2 1.7-.5-1.5 5.2-1.7zm-247.6 80.5.5 1.5-5.3 1.8-.5-1.5 5.3-1.8zm242.6-93.4.7 1.5-5 2.2-.7-1.5 5-2.2zM139.3 357.6l.7 1.5-5.1 2.3-.7-1.5 5.1-2.3zm238.5 2.2-.7 1.5-5-2.2.7-1.5 5 2.2zM139.9 254l-.7 1.5-5.1-2.3.7-1.5 5.1 2.3zm242.8 92.8-.5 1.5-5.2-1.7.5-1.5 5.2 1.7zm-247.6-80.5-.5 1.5-5.3-1.7.5-1.5 5.3 1.7zm251.1 67.1-.3 1.6-5.4-1.1.3-1.6 5.4 1.1zm-254.7-54.2-.3 1.6-5.5-1.1.3-1.6 5.5 1.1zm256.8 40.4-.2 1.6-5.4-.6.2-1.6 5.4.6zm-258.9-27.2-.2 1.6-5.5-.6.2-1.6 5.5.6zm205.4 121.2-1.3.9-3.2-4.4 1.3-.9 3.2 4.4zM181.7 202.9l-1.3.9-3.3-4.5 1.3-.9 3.3 4.5zm163.9 201.9-1.2 1.1-3.6-4.1 1.2-1.1 3.6 4.1zM171.3 211.3l-1.2 1.1-3.7-4.2 1.2-1.1 3.7 4.2zm184 183.6-1.1 1.2-4.1-3.6 1.1-1.2 4.1 3.6zM161.9 220.7l-1.1 1.2-4.2-3.7 1.1-1.2 4.2 3.7zM364 384l-.9 1.3-4.4-3.2.9-1.3 4.4 3.2zM153.4 231l-.9 1.3-4.5-3.3.9-1.3 4.5 3.3zm117.3 207.6-1.6.2-.6-5.4 1.6-.2.6 5.4zm-27.2-258.9-1.6.2-.6-5.5 1.6-.2.6 5.5zm40.9 256.7-1.6.3-1.1-5.4 1.6-.3 1.1 5.4zm-54.1-254.7-1.6.3-1.1-5.5 1.6-.3c-.1 0 1.1 5.5 1.1 5.5zm67.5 251-1.5.5-1.7-5.2 1.5-.5 1.7 5.2zm-80.5-247.6-1.5.5-1.7-5.3 1.5-.5 1.7 5.3zm93.5 242.6-1.5.7-2.2-5 1.5-.7 2.2 5zM204.9 189.8l-1.5.7-2.3-5.1 1.5-.7 2.3 5.1zm165 112.4c0 1-.3 1.8-.9 2.5s-1.4 1.1-2.5 1.4v.1c1.2.2 2.2.5 2.9 1.1s1 1.4 1 2.4c0 1.5-.5 2.6-1.6 3.5-1.1.8-2.6 1.2-4.7 1.2-1.7 0-3.2-.3-4.5-.8v-2.8c.6.3 1.2.6 2 .7s1.5.3 2.1.3c1.1 0 1.9-.2 2.4-.6s.8-1 .8-1.8c0-.7-.3-1.2-.9-1.6-.6-.3-1.6-.5-2.9-.5h-1.2v-2.5h1.2c1.2 0 2.1-.2 2.6-.5.6-.3.8-.9.8-1.6 0-1.2-.7-1.8-2.2-1.8-.5 0-1 .1-1.6.3-.5.2-1.1.5-1.8.9l-1.5-2.3c1.4-1 3.1-1.6 5.1-1.6 1.6 0 2.9.3 3.8 1 1.1.9 1.6 1.8 1.6 3zM313 223.1h-3.3v-9l.1-1.5.1-1.6-1.1 1.1-1.8 1.5-1.6-2 5-4h2.7l-.1 15.5zM200.1 406.3l5.9-12.8h-7.7v-2.8h11.2v2.1l-5.9 13.5h-3.5zm154.7-145.6h-10.9v-2.3l3.9-3.9c1.1-1.2 1.9-2 2.3-2.5.4-.5.6-.9.8-1.3s.3-.8.3-1.2c0-.6-.2-1.1-.5-1.4s-.8-.5-1.4-.5c-.6 0-1.2.2-1.8.4-.6.3-1.1.7-1.8 1.2l-1.8-2.1c.8-.7 1.4-1.1 1.9-1.4.5-.3 1-.5 1.7-.6.6-.2 1.2-.2 2-.2 1 0 1.8.2 2.6.5.8.4 1.4.8 1.7 1.5.4.6.6 1.4.6 2.2 0 .7-.1 1.4-.4 2-.3.6-.6 1.3-1.2 1.9-.6.6-1.5 1.6-2.8 2.8l-2 1.9v.2h6.8v2.8zm-191.5 89.8c1.5 0 2.7.4 3.6 1 .9.7 1.4 1.6 1.4 2.8 0 .8-.2 1.5-.7 2.1-.4.6-1.1 1.2-2.1 1.7 1.1.6 2 1.3 2.5 2s.8 1.4.8 2.2c0 1.3-.5 2.3-1.5 3.1-1 .8-2.3 1.1-3.9 1.1-1.7 0-3.1-.4-4-1.1-1-.7-1.5-1.8-1.5-3.1 0-.9.3-1.7.7-2.4.5-.7 1.2-1.3 2.3-1.8-.9-.6-1.5-1.1-1.9-1.8-.4-.6-.6-1.4-.6-2.1 0-1.1.5-2 1.4-2.7.9-.6 2.1-1 3.5-1zm-2.4 11.7c0 .6.2 1.1.6 1.5.4.4 1 .5 1.8.5s1.5-.2 1.8-.5c.4-.4.6-.8.6-1.4 0-.5-.2-.9-.6-1.4-.4-.4-1-.9-2-1.4-1.5.7-2.2 1.6-2.2 2.7zm2.4-9.3c-.6 0-1 .2-1.4.4-.4.3-.5.7-.5 1.1 0 .4.2.8.4 1.1.3.4.8.7 1.5 1 .7-.3 1.2-.7 1.5-1 .3-.4.4-.7.4-1.2s-.2-.9-.5-1.1c-.4-.2-.9-.3-1.4-.3zm-10.7-47.5c0 3.1-.6 5.4-1.9 6.9-1.3 1.5-3.3 2.3-5.9 2.3-.9 0-1.6-.1-2.1-.2v-2.6c.6.2 1.2.2 1.9.2 1.1 0 2-.2 2.7-.5.7-.3 1.2-.8 1.6-1.5.4-.7.6-1.7.7-2.9h-.1c-.4.7-.9 1.1-1.5 1.4-.5.3-1.2.4-2 .4-1.4 0-2.4-.4-3.2-1.3-.8-.9-1.2-2.1-1.2-3.6 0-1.7.5-3 1.4-3.9.9-1 2.2-1.5 3.9-1.5 1.1 0 2.2.3 3 .8.9.5 1.5 1.3 2 2.3.4 1 .7 2.2.7 3.7zm-5.7-4.3c-.7 0-1.2.3-1.6.7-.4.5-.6 1.1-.6 2 0 .8.2 1.4.5 1.8.4.4.9.7 1.6.7.7 0 1.2-.2 1.7-.7.5-.4.7-.9.7-1.5 0-.8-.2-1.6-.7-2.1s-.9-.9-1.6-.9zm208.3 62.2h-1.9v3.2h-3.2v-3.2h-6.6V361l6.9-10.1h3.1v9.8h1.9l-.2 2.6zm-5.1-2.6v-2.6c0-.4 0-1.1.1-1.9s.1-1.4.1-1.5h-.1c-.3.6-.6 1.1-.9 1.7l-2.9 4.3h3.7zm-185-100.3h-3.3v-9l.1-1.5.1-1.6-1.1 1.1-1.8 1.5-1.6-2 5-4h2.6v15.5zm15.1-7.8c0 2.7-.5 4.7-1.4 6-.9 1.3-2.3 2-4.1 2-1.8 0-3.2-.7-4.1-2-.9-1.4-1.4-3.3-1.4-6 0-2.8.5-4.8 1.4-6.1.9-1.3 2.2-2 4.1-2 1.8 0 3.2.7 4.1 2 .9 1.5 1.4 3.5 1.4 6.1zm-7.6 0c0 1.9.2 3.3.5 4.1.3.8.9 1.2 1.7 1.2s1.3-.4 1.7-1.2.5-2.2.5-4.1-.2-3.3-.5-4.1-.9-1.2-1.7-1.2-1.4.4-1.7 1.2c-.3.9-.5 2.2-.5 4.1zm136.8 143.6c1.5 0 2.7.4 3.6 1.2s1.4 2 1.4 3.5c0 1.8-.5 3.1-1.6 4-1.1.9-2.6 1.4-4.6 1.4-1.7 0-3.1-.3-4.2-.8v-2.9c.6.3 1.2.5 2 .7s1.5.3 2.1.3c2 0 3-.8 3-2.5 0-1.6-1-2.3-3.1-2.3-.4 0-.8.1-1.2.1-.5.1-.8.2-1.1.3l-1.3-.7.6-7.9h8.5v2.8h-5.6l-.3 3.1.4-.1c.2-.2.7-.2 1.4-.2zM201.2 223.1h-3.3v-9l.1-1.5.1-1.6-1.1 1.1-1.8 1.5-1.6-2 5-4h2.7l-.1 15.5zm12.4 0h-3.3v-9l.1-1.5.1-1.6-1.1 1.1-1.8 1.5-1.6-2 5-4h2.7l-.1 15.5zm36.9 191c0-3.1.7-5.4 2-6.9s3.3-2.3 5.9-2.3c.9 0 1.6.1 2.1.2v2.6c-.6-.2-1.2-.2-1.9-.2-1.1 0-2.1.2-2.8.5-.7.4-1.2.8-1.6 1.5-.4.7-.6 1.6-.6 2.9h.2c.7-1.2 1.8-1.8 3.4-1.8 1.4 0 2.5.4 3.3 1.3.8.9 1.2 2.1 1.2 3.6 0 1.7-.5 3-1.4 3.9-.9 1-2.2 1.5-3.9 1.5-1.1 0-2.2-.3-3-.8s-1.5-1.3-2-2.3c-.7-1.1-.9-2.3-.9-3.7zm5.6 4.1c.7 0 1.2-.3 1.6-.7.4-.5.6-1.1.6-2 0-.8-.2-1.4-.5-1.8-.4-.4-.9-.7-1.6-.7-.7 0-1.2.2-1.7.7-.5.4-.7.9-.7 1.5 0 .8.2 1.6.7 2.1.3.7.9.9 1.6.9zm-3.9-210.3H249v-9l.1-1.5.1-1.6-1.1 1.1-1.8 1.5-1.6-2 5-4h2.7l-.2 15.5zm15.3 0h-10.9v-2.3l3.9-3.9c1.1-1.2 1.9-2 2.3-2.5.4-.5.6-.9.8-1.3.2-.4.3-.8.3-1.2 0-.6-.2-1.1-.5-1.4s-.8-.5-1.4-.5c-.6 0-1.2.2-1.8.4-.6.3-1.1.7-1.8 1.2l-1.8-2.1c.8-.7 1.4-1.1 1.9-1.4.5-.3 1-.5 1.7-.6.6-.2 1.2-.2 2-.2 1 0 1.8.2 2.6.5.7.4 1.4.8 1.7 1.5.4.6.6 1.4.6 2.2 0 .7-.1 1.4-.4 2-.3.6-.6 1.3-1.2 1.9-.5.7-1.5 1.6-2.8 2.8l-2 1.9v.2h6.8v2.8z"/><path class="st1" d="M267.7 111.5h-23.5c-4.4 0-8-3.6-8-8s3.6-8 8-8h23.5c4.4 0 8 3.6 8 8s-3.5 8-8 8z"/><path class="st1" d="M254 108h4v34h-4zm104.4-42.8.1-.4V46.4c0-15-9.4-28.4-23.5-33.4-16.6-5.9-43.5-13-77-13h-2c-33.6 0-60.4 7.1-77 13-14 5-23.5 18.4-23.5 33.4v18.4l.1.4c0 .1 1.7 11.8-21.1 23.2l3.1 6.3c25.8-12.9 25.3-27.5 24.9-30.4V46.4c0-12 7.6-22.8 18.8-26.8C197.4 13.8 223.4 7 256 7h2c32.6 0 58.6 6.8 74.7 12.6 11.3 4 18.8 14.8 18.8 26.8v17.9c-.4 2.9-.8 17.5 24.9 30.4l3.1-6.3c-22.8-11.4-21.1-23.1-21.1-23.2zm-198.5 374L143 468.4c-4.1 7.1-7.9 14.5-11.3 22l-5.5 12.1c-1.3 2.8-.2 6.1 2.5 7.7l1.8 1.1c2.7 1.5 6.1.8 7.9-1.7l7.8-10.9c4.8-6.7 9.2-13.6 13.4-20.8l16.8-29.1-16.5-9.6zm192.2 0 16.8 29.1c4.1 7.1 7.9 14.5 11.3 22l5.5 12.1c1.3 2.8.2 6.1-2.5 7.7l-1.8 1.1c-2.7 1.5-6.1.8-7.9-1.7l-7.8-10.9c-4.8-6.7-9.2-13.6-13.4-20.8l-16.8-29.1 16.6-9.5z"/><path class="st4" d="m180.8 298.6 25.3 7.2c2.7.8 5.4 1.2 8.2 1.3l41.9 1.9.3-3 .3-3-41.3-7.4c-2.7-.5-5.5-.7-8.3-.5l-26.3 1.4c-1 .2-1.2 1.8-.1 2.1z"/><path class="st4" d="m362.3 331.2-35.5-13.4c-3.2-1.2-6.6-2.2-10-2.9L257.5 303l-.7 2.9-.7 2.9 58 17.3c3.3 1 6.7 1.7 10.1 2.1l37.7 4.8c1.1.3 1.6-1.4.4-1.8z"/><path class="st2" d="M244.3 95.5c-4.4 0-8 3.6-8 8s3.6 8 8 8h9.7V129c-23.2.3-45.8 4.9-67.1 13.9-3.9 1.6-7.7 3.4-11.4 5.3l-5.2-9 51.1-29.5c2.2-1.2 3.5-3.3 3.9-5.6 0-.3.1-.5.1-.8.1-.8 0-1.5-.2-2.3s-.5-1.5-.9-2.2l-6.9-12c-.2-.4-.5-.7-.7-1.1-.2-.3-.5-.6-.7-1 0 0 0-.1-.1-.1-.5-.7-1.1-1.3-1.8-1.9-1.3-1.2-2.8-2.1-4.5-2.8-14.9-6.1-32.2-7.6-51.1-2.1 4.5-6.7 4.3-12.1 4-13.7V46.4c0-12 7.6-22.8 18.8-26.8C197.4 13.8 223.4 7 256 7V0c-33.6 0-60.4 7.1-77 13-14 5-23.5 18.4-23.5 33.4v18.4l.1.4c0 .1 1.1 7.9-10.8 16.9l-11.3-19.6c-1.1-1.9-3.6-2.6-5.5-1.5l-13.9 8c-1.9 1.1-2.6 3.6-1.5 5.5l11.8 20.4c-21.4 15.4-32 34.7-34.6 54.3-.2 1.8-.2 3.6.2 5.3.2.8.4 1.7.7 2.5v.1c.1.4.3.7.5 1.1l.6 1.2 6.9 12c2.2 3.8 7.1 5.1 10.9 2.9l51.1-29.5 5.1 8.8c-12.8 7.6-24.7 16.7-35.3 27.4-16.3 16.3-29.1 35.3-38 56.4-9.3 21.9-14 45.2-14 69.1s4.7 47.2 14 69.1c8.9 21.1 21.7 40.1 38 56.4 7 7 14.5 13.4 22.5 19.1l-10 17.3c-4.1 7.1-7.9 14.5-11.3 22l-5.5 12.1c-1.3 2.8-.2 6.1 2.5 7.7l1.8 1.1c2.7 1.5 6.1.8 7.9-1.7l7.8-10.9c4.8-6.7 9.2-13.6 13.4-20.8l9.6-16.6c5.8 3.2 11.7 6.2 17.8 8.8 21.9 9.3 45.2 14 69.1 14V95.5h-11.8z"/></svg>