<svg version="1" xmlns="http://www.w3.org/2000/svg" width="2049.333" height="2049.333" viewBox="0 0 1537 1537"><path d="M734.8.5c-.2.2-5.7.6-12.3.9-6.6.4-13.6.8-15.5 1-1.9.2-7.2.7-11.8 1.1-4.5.3-9.3.8-10.5 1-1.2.2-4.8.6-8.1 1-3.2.4-6.8.8-8 1-1.1.2-7 1.1-13.1 2-16.7 2.3-20 2.9-40 6.9-18.9 3.8-41.1 9.3-59.9 14.7-14.8 4.3-45.7 14.3-49.1 15.9-1.8.9-8.3 3.3-21 7.9-2.7 1-7 2.8-9.5 3.9s-7.4 3.3-11 4.7c-15.2 6.2-51.6 24-68 33.2-18.5 10.4-18.9 10.6-26.5 15.2-7.4 4.5-7.5 4.6-26 16.6-11 7.2-33.4 22.9-39.6 27.9-1.5 1.2-3.9 3-5.3 4-1.5 1.1-3.5 2.7-4.6 3.5-1 .9-3.5 2.9-5.6 4.6-29.5 23-62.1 53.9-94.9 89.9-.6.6-3.7 4.2-7 8.1-3.3 3.8-6.2 7.2-6.5 7.5-.3.3-4.1 5-8.5 10.5s-8.3 10.2-8.6 10.5c-1.9 1.7-22.4 30.2-32 44.5-30 44.6-53.6 88.9-75.1 141-3.8 9.3-7.6 18.8-8.3 21-.7 2.2-4 11.9-7.4 21.5-3.4 9.6-6.1 17.7-6.1 18-.1.3-1 3.6-2.2 7.5-3 10.1-7.8 27.6-8.4 30.5-.3 1.4-1.1 4.7-1.9 7.5-.8 2.7-1.6 6.1-1.9 7.5-.3 1.4-2.1 10.1-4.1 19.3-1.9 9.2-3.7 18.2-3.9 20-.3 1.8-.8 4.3-1.1 5.7-.3 1.4-.7 4.1-1 6-.2 1.9-1.3 9.3-2.4 16.5-1.1 7.1-2.3 16.1-2.7 20-.3 3.8-.8 7.7-.9 8.5-.2.8-.6 5.3-1 10-.3 4.7-.8 10.3-1 12.5C.6 729.3 0 782.7 1.4 807c.9 17.9 1.3 22.7 3.1 41.5.5 5.3 3.2 26.3 3.9 30.5.3 1.4.9 5.6 1.5 9.5.6 3.8 1.3 8.1 1.6 9.5.2 1.4.6 3.6.9 5 .4 2.5 4.4 22.6 5.2 26.5 1.7 8.2 5.9 25.8 7 29.3.8 2.3 1.4 4.8 1.4 5.4 0 .7 1.1 4.9 2.5 9.4l2.5 8.2 20.8-8.9c11.4-5 22.5-9.8 24.7-10.8 2.2-1 11-4.9 19.5-8.6 8.5-3.7 22.7-9.9 31.5-13.7 8.8-3.8 17.4-7.6 19-8.3 1.7-.7 5-2.2 7.5-3.3 2.5-1.1 12.6-5.4 22.5-9.7 9.9-4.3 20-8.6 22.5-9.8 2.5-1.1 6.4-2.8 8.8-3.8 2.3-1 4.2-2.2 4.2-2.6 0-.4-.7-3.6-1.5-7s-1.7-7.7-2-9.5c-.3-1.8-.8-4.1-1.1-5-.7-2.3-.9-3.4-3.7-21.3-2.6-16-3.1-19.9-4.3-31-.3-3.3-.7-7.4-1-9-2.4-18.4-2.3-87.6.1-102.7.2-1.3.6-5 .9-8.3.8-7.8 3.1-24.5 4-29 .2-1.1.6-4.1 1-6.6.9-6.3 4-22 6.1-30.9.2-.8.9-3.8 1.5-6.5.6-2.8 1.3-5.7 1.6-6.5.2-.8 1-4 1.8-7 14.4-56.6 42.9-120 76.9-171 7.8-11.7 21.1-30.5 22.7-32 .3-.3 1.7-2.1 3.1-4 16.3-21.8 51.3-58.9 73.9-78 3.5-3 7.1-6.1 8-6.9 8.7-8.2 53.5-41.1 54.4-40 .1.2 3.8 8.5 8 18.4 4.3 9.9 9.9 22.9 12.6 29 2.6 6 10.7 24.7 18 41.5 7.3 16.8 13.8 31.8 14.5 33.5.8 1.6 6.6 15.1 13.1 30 6.4 14.8 22 50.8 34.6 80 12.7 29.1 24.4 56.1 26 60 1.7 3.8 3.8 8.8 4.8 11 1 2.2 4.1 9.4 7 16 7.4 17.1 7.6 17.6 9.3 21.5.8 1.9 3.8 8.7 6.5 15 5.9 13.7 24.8 57.2 26.7 61.5.7 1.6 1.9 4.5 2.6 6.2.8 1.8 1.7 3.3 2 3.3.7 0 28.4-11.9 56.4-24.2 17.7-7.8 20.8-9.1 21.5-9.2.3-.1 2.1-.9 4.1-1.9 9.1-4.3 61.6-27 63.7-27.4 1.2-.3 2.2-.9 2.2-1.4 0-.5.6-.9 1.3-.9 1.1 0 13.5-5.2 26.9-11.3l2.7-1.2-5.8-13.5c-3.2-7.4-9.4-21.8-13.8-32-4.5-10.2-12.5-28.6-17.8-41-5.3-12.4-10.5-24.3-11.5-26.5-1-2.2-4.1-9.4-7-16-7.3-16.9-7.5-17.5-9.8-22.5-1.1-2.5-3.2-7.4-4.7-11-1.5-3.6-3.7-8.8-5-11.5-1.3-2.8-10.2-23.2-19.8-45.5-9.6-22.3-25.6-59.2-35.5-82-9.9-22.8-25.3-58.4-34.2-79-8.9-20.6-17.1-39.5-18.2-41.9-1.1-2.4-1.6-4.7-1.1-5.1.7-.7 23.5-6 32.1-7.5 10.7-1.8 12.7-2.1 22.7-3.5 4.4-.6 9.1-1.3 10.5-1.5 2.3-.3 6-.7 20-2 13.3-1.3 26.9-1.8 48-1.9 24.9 0 39.9.7 59.5 2.9 2.2.2 6.7.7 10 1 3.3.4 6.7.8 7.5 1 .8.2 4 .7 7 1 3 .3 6.2.8 7 1 .8.2 2.9.6 4.5.9 13.6 2.3 28.8 5.4 43.5 9.1 14.5 3.7 35.8 9.9 45.5 13.4 3.3 1.2 8.7 3.1 12 4.2 3.3 1.1 7.4 2.7 9 3.4 1.7.7 6.2 2.5 10 4 7.7 2.9 9.7 3.8 20 8.5 80.3 36.8 142.7 83.8 202.4 152.5 2 2.3 15.8 19.8 21.4 27 2.9 3.9 8.2 11.3 13.1 18.5 3.2 4.7 6 8.6 6.1 8.8.2.2 17.6-7.1 20.6-8.7.8-.5 7.6-3.5 15-6.6 7.4-3.1 15.9-6.8 18.9-8.2 3-1.4 11.8-5.2 19.5-8.5 7.7-3.3 16.3-7 19-8.3 2.8-1.2 10-4.4 16-7 6.1-2.6 12.4-5.3 14-6.1 8.2-3.6 54.3-23.7 56.3-24.5 2.2-.8 2.1-1.1-4.4-11.6-15.8-25.7-39.6-59.2-56.6-79.8-4.6-5.6-18.4-22.1-19.3-23.1-26.1-28.7-44.5-47-71.4-71-25.9-23-69.8-55.4-100.4-74-7.4-4.5-7.6-4.6-17.7-10.6-25.4-15-55.2-29.8-93.5-46.3-14.1-6.1-53-20.2-65-23.5-1.6-.5-7.7-2.2-13.5-4-21.9-6.5-60-15.6-73.5-17.5-2.2-.4-5.6-1-7.5-1.5-1.9-.4-6.9-1.4-11-2-4.1-.6-8.6-1.3-10-1.6-1.4-.2-6.3-.9-11-1.4-4.7-.6-9.6-1.3-11-1.5-1.4-.2-5.4-.6-9-1-3.6-.4-7.6-.8-9-1-1.4-.2-7-.7-12.5-1.1-5.5-.4-11.6-.9-13.5-1.1-4.5-.4-80.7-1.2-81.2-.8zm762.7 557.6c-3.8 1.7-7.9 3.4-9 3.9-7.2 3.2-14.8 6.5-37.5 16.2-14 6-26.8 11.6-28.5 12.3-1.6.8-15.8 6.8-31.5 13.5s-29.8 12.7-31.5 13.5c-1.6.7-9.1 3.9-16.5 7-7.4 3.2-14.7 6.3-16.1 7.1l-2.7 1.3 2 8.3c1.8 7.7 5.5 26 6.4 31.8.2 1.4.7 4.1 1 6 .3 1.9.8 4.8 1 6.5.1 1.6.6 5 1 7.5.3 2.5.8 5.8.9 7.5.8 7.4 1.6 15.3 2 18.5 2.5 19.7 2.5 78.1.1 98.6-.2 1.6-.7 6-1.1 9.7-.3 3.7-.8 7.7-1 8.7-.2 1-.6 4.5-1 7.7-1.2 11-7.1 44-10 55.3-12.1 47.7-23.9 80.4-43 119.5-15.6 32-29.4 55.3-49.8 84-4.6 6.4-21.4 28.3-22.7 29.5-.3.3-3 3.4-6 7s-7.3 8.5-9.5 11c-5.1 5.7-38.4 39.1-45 45.1-13.4 12.2-42.2 34.6-58.6 45.7l-7.6 5.1-8.3-19.2c-4.6-10.6-9.3-21.5-10.6-24.2-1.2-2.8-2.9-6.6-3.7-8.5-.9-1.9-4-9.1-7-16s-11-25.1-17.7-40.5c-6.7-15.4-13-29.8-14-32-1-2.2-5.5-12.6-10-23-4.5-10.5-9.5-21.8-11.1-25.3-1.6-3.5-2.9-6.6-2.9-6.9 0-.3-1.3-3.3-2.9-6.7-1.6-3.3-5.7-12.6-9.1-20.6-3.4-8-7-16.3-8-18.5-1-2.2-5.7-13-10.5-24s-10.2-23.4-12-27.5c-3.4-7.8-16-36.6-43-98.5-8.6-19.8-15.8-36.1-15.9-36.2-.1-.1-3.7 1.4-8.1 3.3-4.4 2-19.9 8.7-34.5 15-14.6 6.4-27.8 12.2-29.5 12.9-6.9 3.1-19.5 8.5-26.5 11.5-4.1 1.7-9.5 4.1-12 5.2-2.5 1.1-16.4 7.2-30.9 13.5-33.7 14.5-37.1 16.1-37.1 17.1 0 .4 2.7 6.8 5.9 14.2 3.3 7.4 13.4 30.8 22.6 52 9.1 21.2 19.5 45 23 53s11.5 26.4 17.8 41c6.3 14.6 12.2 28.1 13 30 2.4 5.6 4.4 10 8.2 19 2 4.6 4.2 9.8 5 11.4 1.5 3.4 15 34.4 25 57.6 8 18.6 25.2 58.3 27.5 63.5 1 2.2 6.2 14.1 11.5 26.5 5.4 12.4 10.5 24.3 11.5 26.5 1 2.2 3.9 8.9 6.5 15 2.6 6 5.3 12.3 6.1 13.9.8 1.6 1.4 3 1.4 3.2 0 .2-3.7 1.1-16 3.9-4 .9-22 4.4-25.5 5-13.6 2.1-33 4.6-38.5 5-1.4.1-6.1.5-10.5.9-26.9 2.3-61.9 2.3-88.8.1-11.3-1-18.2-1.6-20.7-2-1.4-.2-5-.7-8-1-43.3-5-95.1-18.6-141-37.1-20-8-46.1-20.3-60.5-28.4-21.5-12.1-39.8-23.5-55-34.3-10.4-7.4-35.6-26.6-36.5-27.8-.3-.4-2.3-2.1-4.4-3.8-30.9-24.6-81-80.4-103.1-114.8-2.2-3.5-4.4-6.3-4.8-6.3-.7 0-30.9 12.9-43.2 18.5-2.7 1.3-11.1 4.9-18.5 8-7.4 3.2-14.1 6.1-15 6.6-.8.4-3.2 1.5-5.2 2.4-5.1 2-9.2 3.8-16 6.9-3.1 1.4-5.9 2.6-6.2 2.6-.3 0-2.9 1.1-5.8 2.4-2.9 1.4-19.9 8.9-37.8 16.6-17.9 7.8-32.7 14.3-32.9 14.5-.3.3 1.6 3.7 8.1 14.5 7.1 11.6 31.2 46.8 38.5 56 .6.8 5.6 7.1 11 14s10.8 13.6 11.9 15c21.8 25.4 23.3 27 47.4 51.1 27.7 27.7 51.9 48.9 77.5 68 5.5 4 10.2 7.6 10.5 7.9 1 1.2 24 17 35 24.2 16.9 10.9 35.2 21.8 54.5 32.3 8.2 4.5 42.2 21.5 42.9 21.5.3 0 4.4 1.8 9.3 4.1 23.2 10.8 66.7 26.6 100.8 36.8 10.7 3.1 33.8 9 42.5 10.7 1.4.3 4.1.9 6 1.4 1.9.5 5.1 1.2 7 1.5 1.9.3 5.1 1 7 1.5 1.9.5 5.5 1.2 8 1.5 2.5.4 6.4 1 8.7 1.6 2.2.5 6.5 1.2 9.5 1.5 2.9.3 5.6.8 5.9 1 .4.2 3.1.6 6 .9 3 .4 7.9 1 10.9 1.5s8.4 1.2 12 1.5c3.6.3 7.6.8 9 1 1.4.2 5.9.6 10 1 4.1.3 9.4.7 11.7 1 25.7 2.4 96.9 2.4 115.8 0 1.7-.3 6.6-.7 11-1 4.4-.3 9.1-.8 10.5-1 1.4-.2 5.4-.6 9-1 6.6-.6 7.8-.8 16-2 2.5-.4 5.6-.8 7-1 2.3-.3 25.8-4.2 30.5-5 1.1-.2 5.4-1.1 9.5-2 4.1-.9 8.6-1.9 10-2.1 12.9-2.5 47.5-11.6 65-17.1 6.3-2 12-3.8 12.5-3.9 2.2-.4 33.4-11.8 42.9-15.6 36.3-14.4 76.4-33.8 105.6-51.1 48.9-28.9 91.3-60.1 130.9-96.2 8.1-7.4 40.8-40 47.6-47.5 10.1-11.2 19.3-21.7 25.5-29.5 3.6-4.4 6.7-8.2 7-8.5.9-.8 14.2-18 20.1-26 10.5-14.1 32.6-47.4 38.7-58.2 1.1-1.8 4.2-7.1 6.9-11.8 14.5-24.6 33.2-62.5 44.2-89.5.5-1.1 1.3-3.1 1.9-4.5 9.5-21.7 25.4-69 30.8-91 .2-.8 2.1-8.7 4.4-17.5 2.2-8.8 4.3-17.4 4.6-19 .3-1.7 1.1-5.9 1.9-9.5 1.7-7.7 5.1-26.5 6.2-33.5.4-2.8.8-5.2.8-5.5.1-.3.5-3.2.9-6.5.5-3.3 1-6.7 1.1-7.5.2-.8.6-4.4 1-8 .4-3.6.9-7.3 1-8.2.2-.9.7-5.7 1-10.5.4-4.8.9-9.6 1.1-10.6.1-.9.6-6.3.9-12 2.6-43.4 2-86.7-2-126.2-.2-2.8-.7-7.7-1-11-.3-3.3-.8-7.1-1-8.5-.2-1.4-.7-4.5-1-7-.5-4.1-2.9-19.7-4-26-.2-1.4-.7-4.1-1-6-1.9-11.7-7.4-37.9-9.9-47.2-.8-3.1-1.7-6.7-2-8-.3-1.2-1.4-5.7-2.5-9.8-1.2-4.1-2.6-9.4-3.2-11.8-.6-2.3-1.4-4.2-1.8-4.2-.3 0-3.7 1.4-7.6 3.1z"/></svg>