<svg xmlns="http://www.w3.org/2000/svg" viewBox="0 0 512 512"><path fill-rule="evenodd" clip-rule="evenodd" fill="#222" d="M256 5.7C114.3 5.7-.6 120.6-.6 262.4c0 113.4 73.5 209.5 175.5 243.5 12.8 2.4 17.5-5.6 17.5-12.4 0-6.1-.2-22.2-.3-43.6-71.4 15.5-86.4-34.4-86.4-34.4C94 385.9 77.2 378 77.2 378c-23.3-15.9 1.8-15.6 1.8-15.6 25.8 1.8 39.3 26.4 39.3 26.4 22.9 39.2 60.1 27.9 74.7 21.3 2.3-16.6 9-27.9 16.3-34.3-57-6.5-116.9-28.5-116.9-126.8 0-28 10-50.9 26.4-68.9-2.6-6.5-11.4-32.6 2.5-67.9 0 0 21.5-6.9 70.6 26.3 20.5-5.7 42.4-8.5 64.2-8.6 21.8.1 43.7 2.9 64.2 8.6 49-33.2 70.5-26.3 70.5-26.3 14 35.3 5.2 61.4 2.6 67.9 16.4 17.9 26.4 40.8 26.4 68.9 0 98.6-60 120.3-117.2 126.6 9.2 7.9 17.4 23.6 17.4 47.5 0 34.3-.3 62-.3 70.4 0 6.9 4.6 14.8 17.6 12.3 101.9-34 175.3-130.1 175.3-243.5C512.6 120.6 397.7 5.7 256 5.7z"/></svg>