<svg xmlns="http://www.w3.org/2000/svg" viewBox="0 0 512 512"><defs><clipPath id="a"><path d="M0 5.22h512v501.55H0z" style="fill:none"/></clipPath></defs><path d="M216.5 367.72c-66-8-112.5-55.5-112.5-117 0-25 9-52 24-70-6.5-16.5-5.5-51.5 2-66 20-2.5 47 8 63 22.5 19-6 39-9 63.5-9s44.5 3 62.5 8.5c15.5-14 43-24.5 63-22 7 13.5 8 48.5 1.5 65.5 16 19 24.5 44.5 24.5 70.5 0 61.5-46.5 108-113.5 116.5 17 11 28.5 35 28.5 62.5v52c0 15 12.5 23.5 27.5 17.5 90.5-34.5 161.5-125 161.5-237 0-141.5-115-257-256.5-257S0 120.72 0 262.22c0 111 70.5 203 165.5 237.5 13.5 5 26.5-4 26.5-17.5v-40c-7 3-16 5-24 5-33 0-52.5-18-66.5-51.5-5.5-13.5-11.5-21.5-23-23-6-.5-8-3-8-6 0-6 10-10.5 20-10.5 14.5 0 27 9 40 27.5 10 14.5 20.5 21 33 21s20.5-4.5 32-16c8.5-8.5 15-16 21-21" style="clip-path:url(#a)"/></svg>