<?xml version="1.0" encoding="utf-8"?>
<!-- Generator: Adobe Illustrator 18.0.0, SVG Export Plug-In . SVG Version: 6.00 Build 0)  -->
<!DOCTYPE svg PUBLIC "-//W3C//DTD SVG 1.1//EN" "http://www.w3.org/Graphics/SVG/1.1/DTD/svg11.dtd">
<svg version="1.1" id="Layer_1" xmlns="http://www.w3.org/2000/svg" xmlns:xlink="http://www.w3.org/1999/xlink" x="0px" y="0px"
	 viewBox="0 0 141.7 141.7" enable-background="new 0 0 141.7 141.7" xml:space="preserve">
<g>
	<path fill="#DE2B26" d="M120.9,58.7c5.2,21.1-3.6,43.3-21.7,55.2L82.4,75.4l-16.1,7L83,120.9c-21.1,5.2-43.3-3.6-55.2-21.7
		l-16.3,7.1c17.5,29.5,54.6,42,86.9,28c32.3-14,48.4-49.7,38.8-82.6L120.9,58.7z"/>
	<path fill="#DE2B26" d="M43.3,7.5C11.1,21.5-5.1,57.2,4.5,90.1L20.8,83C15.7,62,24.4,39.7,42.6,27.8l16.7,38.5l16.1-7L58.7,20.8
		c21.1-5.2,43.3,3.6,55.2,21.7l16.3-7.1C112.7,6,75.6-6.5,43.3,7.5z"/>
</g>
</svg>
