<?xml version="1.0" standalone="no"?>
<!DOCTYPE svg PUBLIC "-//W3C//DTD SVG 20010904//EN"
 "http://www.w3.org/TR/2001/REC-SVG-20010904/DTD/svg10.dtd">
<svg version="1.0" xmlns="http://www.w3.org/2000/svg"
 width="1537.000000pt" height="1537.000000pt" viewBox="0 0 1537.000000 1537.000000"
 preserveAspectRatio="xMidYMid meet">
<metadata>
Created by potrace 1.11, written by Peter Selinger 2001-2013
</metadata>
<g transform="translate(0.000000,1537.000000) scale(0.100000,-0.100000)"
fill="#000000" stroke="none">
<path d="M7348 15365 c-2 -2 -57 -6 -123 -9 -66 -4 -136 -8 -155 -10 -19 -2
-72 -7 -118 -11 -45 -3 -93 -8 -105 -10 -12 -2 -48 -6 -81 -10 -32 -4 -68 -8
-80 -10 -11 -2 -70 -11 -131 -20 -167 -23 -200 -29 -400 -69 -189 -38 -411
-93 -599 -147 -148 -43 -457 -143 -491 -159 -18 -9 -83 -33 -210 -79 -27 -10
-70 -28 -95 -39 -25 -11 -74 -33 -110 -47 -152 -62 -516 -240 -680 -332 -185
-104 -189 -106 -265 -152 -74 -45 -75 -46 -260 -166 -110 -72 -334 -229 -396
-279 -15 -12 -39 -30 -53 -40 -15 -11 -35 -27 -46 -35 -10 -9 -35 -29 -56 -46
-295 -230 -621 -539 -949 -899 -6 -6 -37 -42 -70 -81 -33 -38 -62 -72 -65 -75
-3 -3 -41 -50 -85 -105 -44 -55 -83 -102 -86 -105 -19 -17 -224 -302 -320
-445 -300 -446 -536 -889 -751 -1410 -38 -93 -76 -188 -83 -210 -7 -22 -40
-119 -74 -215 -34 -96 -61 -177 -61 -180 -1 -3 -10 -36 -22 -75 -30 -101 -78
-276 -84 -305 -3 -14 -11 -47 -19 -75 -8 -27 -16 -61 -19 -75 -3 -14 -21 -101
-41 -193 -19 -92 -37 -182 -39 -200 -3 -18 -8 -43 -11 -57 -3 -14 -7 -41 -10
-60 -2 -19 -13 -93 -24 -165 -11 -71 -23 -161 -27 -200 -3 -38 -8 -77 -9 -85
-2 -8 -6 -53 -10 -100 -3 -47 -8 -103 -10 -125 -19 -178 -25 -712 -11 -955 9
-179 13 -227 31 -415 5 -53 32 -263 39 -305 3 -14 9 -56 15 -95 6 -38 13 -81
16 -95 2 -14 6 -36 9 -50 4 -25 44 -226 52 -265 17 -82 59 -258 70 -293 8 -23
14 -48 14 -54 0 -7 11 -49 25 -94 l25 -82 208 89 c114 50 225 98 247 108 22
10 110 49 195 86 85 37 227 99 315 137 88 38 174 76 190 83 17 7 50 22 75 33
25 11 126 54 225 97 99 43 200 86 225 98 25 11 64 28 88 38 23 10 42 22 42 26
0 4 -7 36 -15 70 -8 34 -17 77 -20 95 -3 18 -8 41 -11 50 -7 23 -9 34 -37 213
-26 160 -31 199 -43 310 -3 33 -7 74 -10 90 -24 184 -23 876 1 1027 2 13 6 50
9 83 8 78 31 245 40 290 2 11 6 41 10 66 9 63 40 220 61 309 2 8 9 38 15 65 6
28 13 57 16 65 2 8 10 40 18 70 144 566 429 1200 769 1710 78 117 211 305 227
320 3 3 17 21 31 40 163 218 513 589 739 780 35 30 71 61 80 69 87 82 535 411
544 400 1 -2 38 -85 80 -184 43 -99 99 -229 126 -290 26 -60 107 -247 180
-415 73 -168 138 -318 145 -335 8 -16 66 -151 131 -300 64 -148 220 -508 346
-800 127 -291 244 -561 260 -600 17 -38 38 -88 48 -110 10 -22 41 -94 70 -160
74 -171 76 -176 93 -215 8 -19 38 -87 65 -150 59 -137 248 -572 267 -615 7
-16 19 -45 26 -62 8 -18 17 -33 20 -33 7 0 284 119 564 242 177 78 208 91 215
92 3 1 21 9 41 19 91 43 616 270 637 274 12 3 22 9 22 14 0 5 6 9 13 9 11 0
135 52 269 113 l27 12 -58 135 c-32 74 -94 218 -138 320 -45 102 -125 286
-178 410 -53 124 -105 243 -115 265 -10 22 -41 94 -70 160 -73 169 -75 175
-98 225 -11 25 -32 74 -47 110 -15 36 -37 88 -50 115 -13 28 -102 232 -198
455 -96 223 -256 592 -355 820 -99 228 -253 584 -342 790 -89 206 -171 395
-182 419 -11 24 -16 47 -11 51 7 7 235 60 321 75 107 18 127 21 227 35 44 6
91 13 105 15 23 3 60 7 200 20 133 13 269 18 480 19 249 0 399 -7 595 -29 22
-2 67 -7 100 -10 33 -4 67 -8 75 -10 8 -2 40 -7 70 -10 30 -3 62 -8 70 -10 8
-2 29 -6 45 -9 136 -23 288 -54 435 -91 145 -37 358 -99 455 -134 33 -12 87
-31 120 -42 33 -11 74 -27 90 -34 17 -7 62 -25 100 -40 77 -29 97 -38 200 -85
803 -368 1427 -838 2024 -1525 20 -23 158 -198 214 -270 29 -39 82 -113 131
-185 32 -47 60 -86 61 -88 2 -2 176 71 206 87 8 5 76 35 150 66 74 31 159 68
189 82 30 14 118 52 195 85 77 33 163 70 190 83 28 12 100 44 160 70 61 26
124 53 140 61 82 36 543 237 563 245 22 8 21 11 -44 116 -158 257 -396 592
-566 798 -46 56 -184 221 -193 231 -261 287 -445 470 -714 710 -259 230 -698
554 -1004 740 -74 45 -76 46 -177 106 -254 150 -552 298 -935 463 -141 61
-530 202 -650 235 -16 5 -77 22 -135 40 -219 65 -600 156 -735 175 -22 4 -56
10 -75 15 -19 4 -69 14 -110 20 -41 6 -86 13 -100 16 -14 2 -63 9 -110 14 -47
6 -96 13 -110 15 -14 2 -54 6 -90 10 -36 4 -76 8 -90 10 -14 2 -70 7 -125 11
-55 4 -116 9 -135 11 -45 4 -807 12 -812 8z"/>
<path d="M14975 9789 c-38 -17 -79 -34 -90 -39 -72 -32 -148 -65 -375 -162
-140 -60 -268 -116 -285 -123 -16 -8 -158 -68 -315 -135 -157 -67 -298 -127
-315 -135 -16 -7 -91 -39 -165 -70 -74 -32 -147 -63 -161 -71 l-27 -13 20 -83
c18 -77 55 -260 64 -318 2 -14 7 -41 10 -60 3 -19 8 -48 10 -65 1 -16 6 -50
10 -75 3 -25 8 -58 9 -75 8 -74 16 -153 20 -185 25 -197 25 -781 1 -986 -2
-16 -7 -60 -11 -97 -3 -37 -8 -77 -10 -87 -2 -10 -6 -45 -10 -77 -12 -110 -71
-440 -100 -553 -121 -477 -239 -804 -430 -1195 -156 -320 -294 -553 -498 -840
-46 -64 -214 -283 -227 -295 -3 -3 -30 -34 -60 -70 -30 -36 -73 -85 -95 -110
-51 -57 -384 -391 -450 -451 -134 -122 -422 -346 -586 -457 l-76 -51 -83 192
c-46 106 -93 215 -106 242 -12 28 -29 66 -37 85 -9 19 -40 91 -70 160 -30 69
-110 251 -177 405 -67 154 -130 298 -140 320 -10 22 -55 126 -100 230 -45 105
-95 218 -111 253 -16 35 -29 66 -29 69 0 3 -13 33 -29 67 -16 33 -57 126 -91
206 -34 80 -70 163 -80 185 -10 22 -57 130 -105 240 -48 110 -102 234 -120
275 -34 78 -160 366 -430 985 -86 198 -158 361 -159 362 -1 1 -37 -14 -81 -33
-44 -20 -199 -87 -345 -150 -146 -64 -278 -122 -295 -129 -69 -31 -195 -85
-265 -115 -41 -17 -95 -41 -120 -52 -25 -11 -164 -72 -309 -135 -337 -145
-371 -161 -371 -171 0 -4 27 -68 59 -142 33 -74 134 -308 226 -520 91 -212
195 -450 230 -530 35 -80 115 -264 178 -410 63 -146 122 -281 130 -300 24 -56
44 -100 82 -190 20 -46 42 -98 50 -114 15 -34 150 -344 250 -576 80 -186 252
-583 275 -635 10 -22 62 -141 115 -265 54 -124 105 -243 115 -265 10 -22 39
-89 65 -150 26 -60 53 -123 61 -139 8 -16 14 -30 14 -32 0 -2 -37 -11 -160
-39 -40 -9 -220 -44 -255 -50 -136 -21 -330 -46 -385 -50 -14 -1 -61 -5 -105
-9 -269 -23 -619 -23 -888 -1 -113 10 -182 16 -207 20 -14 2 -50 7 -80 10
-433 50 -951 186 -1410 371 -200 80 -461 203 -605 284 -215 121 -398 235 -550
343 -104 74 -356 266 -365 278 -3 4 -23 21 -44 38 -309 246 -810 804 -1031
1148 -22 35 -44 63 -48 63 -7 0 -309 -129 -432 -185 -27 -13 -111 -49 -185
-80 -74 -32 -141 -61 -150 -66 -8 -4 -32 -15 -52 -24 -51 -20 -92 -38 -160
-69 -31 -14 -59 -26 -62 -26 -3 0 -29 -11 -58 -24 -29 -14 -199 -89 -378 -166
-179 -78 -327 -143 -329 -145 -3 -3 16 -37 81 -145 71 -116 312 -468 385 -560
6 -8 56 -71 110 -140 54 -69 108 -136 119 -150 218 -254 233 -270 474 -511
277 -277 519 -489 775 -680 55 -40 102 -76 105 -79 10 -12 240 -170 350 -242
169 -109 352 -218 545 -323 82 -45 422 -215 429 -215 3 0 44 -18 93 -41 232
-108 667 -266 1008 -368 107 -31 338 -90 425 -107 14 -3 41 -9 60 -14 19 -5
51 -12 70 -15 19 -3 51 -10 70 -15 19 -5 55 -12 80 -15 25 -4 64 -10 87 -16
22 -5 65 -12 95 -15 29 -3 56 -8 59 -10 4 -2 31 -6 60 -9 30 -4 79 -10 109
-15 30 -5 84 -12 120 -15 36 -3 76 -8 90 -10 14 -2 59 -6 100 -10 41 -3 94 -7
117 -10 257 -24 969 -24 1158 0 17 3 66 7 110 10 44 3 91 8 105 10 14 2 54 6
90 10 66 6 78 8 160 20 25 4 56 8 70 10 23 3 258 42 305 50 11 2 54 11 95 20
41 9 86 19 100 21 129 25 475 116 650 171 63 20 120 38 125 39 22 4 334 118
429 156 363 144 764 338 1056 511 489 289 913 601 1309 962 81 74 408 400 476
475 101 112 193 217 255 295 36 44 67 82 70 85 9 8 142 180 201 260 105 141
326 474 387 582 11 18 42 71 69 118 145 246 332 625 442 895 5 11 13 31 19 45
95 217 254 690 308 910 2 8 21 87 44 175 22 88 43 174 46 190 3 17 11 59 19
95 17 77 51 265 62 335 4 28 8 52 8 55 1 3 5 32 9 65 5 33 10 67 11 75 2 8 6
44 10 80 4 36 9 73 10 82 2 9 7 57 10 105 4 48 9 96 11 106 1 9 6 63 9 120 26
434 20 867 -20 1262 -2 28 -7 77 -10 110 -3 33 -8 71 -10 85 -2 14 -7 45 -10
70 -5 41 -29 197 -40 260 -2 14 -7 41 -10 60 -19 117 -74 379 -99 472 -8 31
-17 67 -20 80 -3 12 -14 57 -25 98 -12 41 -26 94 -32 118 -6 23 -14 42 -18 42
-3 0 -37 -14 -76 -31z"/>
</g>
</svg>
