<svg xmlns="http://www.w3.org/2000/svg" viewBox="0 0 512 512"><path fill="#00247D" d="M12.8 336c8.4 25.5 20.7 49.2 36.2 70.5l70.5-70.5H12.8zm36.1-230.5c-15.5 21.3-27.8 45-36.2 70.5h106.7l-70.5-70.5zM224 167.4V2c-43.9 5.5-84.4 22.1-118.5 46.9L224 167.4zM288 2v165.4L406.5 48.9C372.4 24.1 331.9 7.5 288 2zm-64 508V344.6L105.5 463.1c34.1 24.8 74.6 41.4 118.5 46.9zm64 0c43.9-5.5 84.4-22.1 118.5-46.9L288 344.6V510zm175.1-103.5c15.5-21.3 27.8-45 36.2-70.5H392.6l70.5 70.5zM499.2 176c-8.4-25.5-20.7-49.2-36.2-70.5L392.6 176h106.6z"/><path fill="#F0F0F0" d="M80 70.1L185.8 176h-45.3L58.1 93.6c-3.2 3.9-6.3 7.9-9.2 11.9l70.5 70.5H12.8c-3.4 10.4-6.2 21.1-8.3 32H224v-40.6L105.5 48.9C96.5 55.4 88 62.5 80 70.1zM4.5 304c2.1 10.9 4.8 21.6 8.3 32h106.7L49 406.5c6.5 9 13.6 17.5 21.2 25.5l96-96h45.3L93.6 453.9c3.9 3.2 7.9 6.3 11.9 9.2L224 344.6V304H4.5zm503-96c-2.1-10.9-4.8-21.6-8.3-32H392.6l70.5-70.5c-6.5-9-13.6-17.5-21.2-25.5l-96 96h-45.3L418.4 58.1c-3.9-3.2-7.9-6.3-11.9-9.2L288 167.4V208h219.5zM288 304v40.6l118.5 118.5c9-6.5 17.5-13.6 25.5-21.2L326.2 336h45.3l82.4 82.4c3.2-3.9 6.3-7.9 9.2-11.9L392.6 336h106.7c3.4-10.4 6.2-21.1 8.3-32H288z"/><path fill="#CF142B" d="M326.2 336L432 441.9c7.8-7.3 15-15.2 21.8-23.4L371.4 336h-45.2zM185.8 176L80 70.1c-7.8 7.3-15 15.2-21.8 23.4l82.4 82.4h45.2zm256.1-96c-7.3-7.8-15.2-15-23.4-21.8L300.6 176h45.3l96-96zM70.1 432c7.3 7.8 15.2 15 23.4 21.8L211.4 336h-45.3l-96 96z"/><path fill="#CF142B" d="M507.5 208H288V2c-10.5-1.3-21.2-2-32-2s-21.5.7-32 2v206H4.5c-3 15.6-4.5 31.6-4.5 48s1.6 32.4 4.5 48H224v206c10.5 1.3 21.2 2 32 2s21.5-.7 32-2V304h219.5c3-15.6 4.5-31.6 4.5-48s-1.6-32.4-4.5-48z"/></svg>