<?xml version="1.0" encoding="utf-8"?>
<svg version="1.1" id="Layer_1" xmlns="http://www.w3.org/2000/svg" xmlns:xlink="http://www.w3.org/1999/xlink" x="0px" y="0px"
	 viewBox="0 0 16 16" enable-background="new 0 0 16 16" xml:space="preserve">
<path fill-rule="evenodd" clip-rule="evenodd" fill="#222222" d="M8,0.2c-4.4,0-8,3.6-8,8c0,3.5,2.3,6.5,5.4,7.6
	C5.9,15.8,6,15.6,6,15.4c0-0.2,0-0.7,0-1.4c-2.2,0.5-2.7-1.1-2.7-1.1C3,12,2.4,11.8,2.4,11.8c-0.7-0.5,0.1-0.5,0.1-0.5
	c0.8,0.1,1.2,0.8,1.2,0.8C4.4,13.3,5.6,13,6,12.8c0.1-0.5,0.3-0.9,0.5-1.1c-1.8-0.2-3.6-0.9-3.6-3.9c0-0.9,0.3-1.6,0.8-2.1
	c-0.1-0.2-0.4-1,0.1-2.1c0,0,0.7-0.2,2.2,0.8c0.6-0.2,1.3-0.3,2-0.3c0.7,0,1.4,0.1,2,0.3c1.5-1,2.2-0.8,2.2-0.8
	c0.4,1.1,0.2,1.9,0.1,2.1c0.5,0.6,0.8,1.3,0.8,2.1c0,3.1-1.9,3.7-3.6,3.9C9.7,12,10,12.4,10,13.2c0,1.1,0,1.9,0,2.2
	c0,0.2,0.1,0.5,0.5,0.4c3.2-1.1,5.4-4,5.4-7.6C16,3.8,12.4,0.2,8,0.2z"/>
</svg>
