<?xml version="1.0" encoding="utf-8"?>
<!-- Generator: Adobe Illustrator 21.0.2, SVG Export Plug-In . SVG Version: 6.00 Build 0)  -->
<svg version="1.1" id="logo" xmlns="http://www.w3.org/2000/svg" xmlns:xlink="http://www.w3.org/1999/xlink" x="0px" y="0px"
	 viewBox="0 0 247.5 77.5" style="enable-background:new 0 0 247.5 77.5;" xml:space="preserve">
<style type="text/css">
	.st0{fill:#222222;}
	.st1{fill:#DE2B26;}
</style>
<g>
	<g id="text">
		<path class="st0" d="M124.2,60.6h-5.8V41.8H97.7v18.8h-5.8V18h5.8v19.3h20.7V18h5.8V60.6z"/>
		<path class="st0" d="M153.1,60.6c-0.2-1-0.3-1.8-0.5-2.5c-0.1-0.7-0.2-1.5-0.2-2.2c-1.1,1.5-2.5,2.8-4.2,3.8s-3.6,1.5-5.6,1.5
			c-3.3,0-5.8-0.8-7.5-2.5s-2.6-4-2.6-7s1.2-5.4,3.7-7.1c2.5-1.7,5.8-2.6,10-2.6h6.3v-3.1c0-1.9-0.6-3.3-1.7-4.4
			c-1.1-1.1-2.7-1.6-4.8-1.6c-1.9,0-3.4,0.5-4.5,1.4c-1.2,0.9-1.7,2.1-1.7,3.4h-5.5l-0.1-0.2c-0.1-2.3,1-4.4,3.3-6.3
			c2.3-1.9,5.3-2.9,8.9-2.9c3.6,0,6.5,0.9,8.7,2.7s3.3,4.5,3.3,7.9v15.3c0,1.1,0.1,2.2,0.2,3.3s0.3,2.1,0.6,3.1
			C159.2,60.6,153.1,60.6,153.1,60.6z M143.6,56.4c2.1,0,4-0.5,5.7-1.6s2.8-2.3,3.3-3.7V46H146c-2.3,0-4.2,0.6-5.6,1.8
			c-1.4,1.2-2.1,2.5-2.1,4.1c0,1.4,0.4,2.5,1.3,3.3C140.5,56,141.8,56.4,143.6,56.4z"/>
		<path class="st0" d="M181.6,34l-3-0.2c-1.5,0-2.8,0.4-3.9,1.1c-1,0.7-1.9,1.7-2.4,3v22.6h-5.8V28.9h5.2l0.6,4.6
			c0.9-1.6,2-2.9,3.3-3.8s2.8-1.4,4.6-1.4c0.4,0,0.8,0,1.2,0.1s0.7,0.1,1,0.2L181.6,34z"/>
		<path class="st0" d="M202.2,34l-3-0.2c-1.5,0-2.8,0.4-3.9,1.1c-1,0.7-1.9,1.7-2.4,3v22.6h-5.8V28.9h5.2l0.6,4.6
			c0.9-1.6,2-2.9,3.3-3.8s2.8-1.4,4.6-1.4c0.4,0,0.8,0,1.2,0.1s0.7,0.1,1,0.2L202.2,34z"/>
		<path class="st0" d="M214,20.8h-5.8v-5.9h5.8V20.8z M214,60.6h-5.8V28.9h5.8V60.6z"/>
		<path class="st0" d="M233.6,40.6l6.7-11.7h6.7l-10.3,15.7l10.6,16h-6.6l-7-12l-7,12H220l10.6-16l-10.3-15.7h6.7L233.6,40.6z"/>
	</g>
	<g id="icon">
		<path class="st1" d="M22.9,14.6l9.4,21.6l9-3.9l-9.4-21.6c11.8-2.9,24.3,2,30.9,12.2l9.1-4C62.2,2.4,41.4-4.6,23.3,3.2
			S-3.8,31.1,1.5,49.5l9.1-4C7.8,33.7,12.7,21.3,22.9,14.6z"/>
		<path class="st1" d="M75.9,27.9l-9.1,4c2.9,11.8-2,24.3-12.2,30.9l-9.4-21.6l-9,3.9l9.4,21.6c-11.8,2.9-24.3-2-30.9-12.2l-9.1,4
			C15.4,75,36.2,82,54.3,74.2S81.3,46.4,75.9,27.9z"/>
	</g>
</g>
</svg>
